<?xml version="1.0" encoding="UTF-8" standalone="no"?>
<!-- Created with Inkscape (http://www.inkscape.org/) -->

<svg
   width="2810.0918"
   height="363.06055"
   viewBox="0 0 2810.0918 363.06055"
   version="1.1"
   id="svg5"
   xml:space="preserve"
   xmlns="http://www.w3.org/2000/svg"
   xmlns:svg="http://www.w3.org/2000/svg"><defs
     id="defs2" /><g
     id="layer1"
     transform="translate(-1192.7852,-1544.1387)"><path
       id="rect668"
       style="fill:#ffffff;stroke-width:2;stroke-linecap:round;stroke-linejoin:round"
       d="m 1274.8184,1544.1387 c -4.7998,0.01 -8.7266,3.2498 -8.7266,7.1992 0,9.0786 40.9176,90.5605 45.4766,90.5605 1.8626,0 19.0511,-8.6395 38.1972,-19.1992 19.146,-10.5596 34.8568,-22.5582 34.9121,-26.664 0.1019,-7.566 -93.808,-51.9282 -109.8593,-51.8965 z m 375.2617,27.9433 v 146.6153 146.6132 h 34.9082 34.9062 v -69.8164 c 0,-60.5071 1.8635,-71.6779 13.9649,-83.7793 17.6345,-17.6344 43.1438,-17.899 58.789,-0.6113 12.4208,13.7249 17.0434,43.6909 17.6563,114.4453 l 0.3515,40.5254 33.1622,-2.1269 33.1621,-2.1289 1.9004,-62.834 c 2.4542,-81.1853 -8.5506,-120.1848 -39.8672,-141.2891 -29.0791,-19.5964 -66.2141,-20.3318 -96.4278,-1.9101 l -22.6914,13.8339 v -48.7675 -48.7696 h -34.9062 z m 991.0019,1.2051 c -6.6434,-0.046 -14.7774,0.5256 -22.8008,1.7266 l -29.1777,4.3672 1.5938,45.2226 c 0.8756,24.8724 -0.022,45.2227 -1.9922,45.2227 -1.9707,0 -11.5744,-5.2369 -21.3418,-11.6367 -9.8682,-6.4658 -31.5921,-11.6368 -48.8926,-11.6368 -76.6985,0 -122.4777,86.5785 -87.541,165.5586 11.396,25.7626 20.7835,35.6121 44.4219,46.5996 33.2621,15.4609 77.0398,13.5565 96.666,-4.205 14.3116,-12.9518 20.5781,-12.851 20.5781,0.332 0,7.9124 8.5332,10.4726 34.9082,10.4726 h 34.9063 v -142.7109 c 0,-93.9165 -2.5559,-144.2908 -7.4766,-147.332 -2.0563,-1.2708 -7.2082,-1.9344 -13.8516,-1.9805 z m -1143.0976,5.7774 c -9.8024,0 -223.1975,110.3803 -294.7266,152.4492 -5.7598,3.3876 -10.4726,12.1 -10.4726,19.3613 0,10.3343 12.132,17.1501 55.8515,31.373 l 55.8535,18.17 15.8789,44.664 c 8.7333,24.5654 17.2745,48.5908 18.9805,53.3907 1.7059,4.7998 8.9842,8.7265 16.1738,8.7265 9.1949,0 19.9455,-13.9767 36.2481,-47.125 84.1255,-171.0535 125.8649,-263.4174 122.7305,-271.5859 -1.9891,-5.1834 -9.4223,-9.4238 -16.5176,-9.4238 z m 1967.3105,6.2167 v 28.3086 28.3086 l -43.6347,0.043 c -23.9992,0.021 -55.3251,3.2843 -69.6114,7.252 -42.2605,11.7339 -47.3301,25.3323 -47.33,126.9101 v 89.207 h 34.9082 34.9062 v -75.4023 c 0,-49.3365 2.897,-78.2974 8.3789,-83.7793 4.6078,-4.6078 25.0296,-8.3769 45.3809,-8.3769 h 37.0019 v 53.0527 c 0,86.7927 22.3148,114.5058 92.2031,114.5058 h 27.2872 l -2.1465,-29.6386 c -1.9449,-26.8499 -4.1176,-29.9735 -23.0918,-33.209 -20.7773,-3.5428 -20.9612,-3.9777 -22.9961,-54.1426 L 3534.5,1697.752 h 24.4453 c 23.8536,0 24.412,-0.636 22.9961,-26.1817 -1.3289,-23.9753 -3.3289,-26.3616 -23.7441,-28.3379 -20.1898,-1.9545 -22.4955,-4.5909 -24.4356,-27.9277 -2.1149,-25.4398 -2.5649,-25.7957 -35.3047,-27.8965 z m -495.9785,6.9922 -33.0195,2.1231 c -32.4991,2.0887 -33.0539,2.5237 -35.1446,27.5879 -1.5347,18.3988 -5.9388,26.4623 -15.8671,29.0586 -20.3068,5.3104 -16.1281,46.0276 5.5703,54.2773 14.6025,5.5519 15.9121,10.3432 15.9121,58.2559 0,81.5828 14.5567,100.3499 78.5429,101.2617 l 33.1622,0.4726 v -27.9277 c 0,-26.375 -1.1642,-27.9258 -20.9454,-27.9258 h -20.9453 v -52.3613 -52.3633 h 20.9453 c 19.7812,0 20.9454,-1.5508 20.9454,-27.9258 0,-26.0986 -1.3127,-27.9257 -20.0528,-27.9257 -18.0404,0 -20.5064,-2.8396 -24.5781,-28.3028 z m 1026.5547,44.5625 c -2.1669,-0.077 -4.9989,0.619 -8.7012,1.6914 -8.6397,2.5027 -24.3486,10.6622 -34.9082,18.1329 -19.1004,13.5128 -19.1992,13.5093 -19.1992,-0.5899 0,-12.3521 -4.4831,-14.1719 -34.9082,-14.1719 h -34.9082 v 108.2149 108.2148 h 34.9082 34.9082 v -57.789 c 0,-67.3813 8.6566,-84.965 45.209,-91.8223 24.2749,-4.554 24.6055,-5.088 24.6055,-39.6777 0,-24.791 -0.5053,-31.9722 -7.0059,-32.2032 z m -270.0801,5.0625 c -52.3199,0 -87.4343,19.1256 -106.168,57.8243 -50.6191,104.5651 51.6194,202.324 157.8262,150.9101 v 0 c 25.1862,-12.1924 50.8848,-41.6283 50.8848,-58.2832 0,-8.4773 -67.234,-2.7052 -79.877,6.8574 -7.4537,5.6377 -20.806,10.25 -29.6718,10.25 -16.2736,0 -44.0469,-22.0108 -44.0469,-34.9082 0,-4.2497 31.4179,-6.9804 80.289,-6.9804 h 80.2891 l -0.016,-22.6914 c -0.028,-58.4118 -47.4225,-102.9786 -109.5137,-102.9786 z m -483.9082,0 c -30.0541,0 -34.9062,1.9096 -34.9062,13.7285 0,13.4851 -0.4395,13.4695 -24.7481,-0.873 -28.89,-17.0455 -75.2406,-15.1578 -104.8965,4.2734 -22.3422,14.6393 -44.5898,61.8264 -44.5898,94.5762 0,35.9335 23.198,81.2899 49.9043,97.5722 29.499,17.9851 72.3751,18.0902 101.6387,0.2481 v 0 c 22.6253,-13.795 22.6914,-13.7955 22.6914,0.027 0,11.9783 4.7388,13.8613 34.9062,13.8613 h 34.9082 V 1753.6051 1641.9 Z m -486.4277,1.5547 c -33.4706,2.7756 -42.57,6.6725 -59.3086,25.4062 -39.2524,43.9312 -13.9824,88.6886 59.2207,104.8887 40.8664,9.0439 57.5185,24.5578 38.9668,36.3047 -15.976,10.1158 -33.2901,7.2762 -48.5274,-7.9609 -20.1652,-20.1653 -74.12,-17.2044 -70.5722,3.873 7.9376,47.1563 91.1488,74.4292 150.9062,49.4609 27.0493,-11.3019 41.035,-32.8969 40.2051,-62.0839 -0.8487,-29.8511 -19.0423,-45.1259 -72.8301,-61.1446 -37.3169,-11.1135 -47.6822,-17.0109 -45.9511,-26.1445 2.9437,-15.5307 35.6319,-19.1084 47.2031,-5.166 11.6791,14.0726 70.1094,15.1517 70.1094,1.2949 0,-15.5014 -25.8498,-43.7664 -48.67,-53.2188 -12.5977,-5.2182 -37.2765,-7.4565 -60.7519,-5.5097 z m -397.7129,5.4258 c -25.7981,0 -32.434,2.5976 -35.377,13.8515 -3.6128,13.8152 -3.6692,13.8152 -21.2324,0 -39.434,-31.0187 -110.4349,-9.0427 -136.1504,42.1406 -28.4855,56.6972 -4.209,139.5288 47.1153,160.7579 22.4577,9.2892 65.4122,7.4914 86.9355,-3.6387 17.6867,-9.1462 20.3766,-9.1036 24.0176,0.3848 3.0601,7.9744 12.5311,10.1449 37.334,8.5546 l 33.2343,-2.1308 2.084,-87.2696 c 1.1455,-47.9984 0.2171,-97.4813 -2.0625,-109.9609 -3.9574,-21.6659 -5.5775,-22.6894 -35.8984,-22.6894 z m -341.7149,5.4941 c -63.9748,0.5746 -106.1255,35.7749 -112.7011,94.1133 -10.6334,94.3396 75.9991,156.9257 162.707,117.5449 26.49,-12.0312 58.7949,-43.6339 58.7949,-57.5176 0,-10.8713 -74.3424,-6.939 -83.7793,4.4317 -4.7802,5.7598 -16.1615,10.4726 -25.291,10.4726 -16.6595,0 -44.5254,-21.8472 -44.5254,-34.9082 0,-4.2544 31.7346,-6.9805 81.2383,-6.9805 h 81.2363 l -4.4785,-33.1621 c -8.2082,-60.7613 -48.927,-94.5717 -113.2012,-93.9941 z m 1711.7676,40.8203 c 13.095,1.0493 25.3192,6.4129 30.9121,16.8633 10.6219,19.8473 9.337,20.6016 -35.0937,20.6016 -32.2901,0 -41.8887,-2.3641 -41.8887,-10.3125 0,-18.6633 24.2453,-28.9011 46.0703,-27.1524 z m -575.5351,5.4551 c 42.9367,-4.7375 75.2524,67.7964 31.4199,98.498 -16.3862,11.4774 -28.8775,12.3202 -50.8828,3.4336 -19.2332,-7.7671 -32.1102,-43.9536 -23.6035,-66.3281 3.5189,-9.2552 14.4112,-22.077 24.205,-28.4941 6.3763,-4.1779 12.7275,-6.4326 18.8614,-7.1094 z m -1650.711,4.082 c -6.1218,0 -43.2119,76.0834 -38.9433,79.8848 1.3541,1.2058 18.1697,10.2847 37.3691,20.1738 36.5861,18.8446 59.3438,23.3555 59.3438,11.7637 0,-11.8622 -51.6412,-111.8223 -57.7696,-111.8223 z m 512.0332,0 c 22.0307,0 41.4297,12.9586 41.4297,27.6738 0,11.3641 -5.3731,13.2188 -38.2949,13.2188 -21.0623,0 -40.0274,-2.803 -42.1445,-6.2285 -5.8193,-9.4157 22.5947,-34.6641 39.0097,-34.6641 z m 529.8887,0.5332 c 12.0907,0.082 23.5137,4.4163 31.2676,12.9844 16.5745,18.3146 16.9416,58.97 0.6953,76.9219 -17.08,18.8732 -53.3314,18.8602 -70.4219,-0.022 v 0 c -18.758,-20.7273 -17.1048,-60.9226 3.1817,-77.3496 10.4278,-8.444 23.1867,-12.6137 35.2773,-12.5313 z m -272.4512,4.1231 c 29.9473,0 49.3161,19.899 49.1856,50.5332 -0.1236,29.0191 -4.5525,37.4036 -25.6153,48.4902 -23.038,12.1263 -35.9503,9.823 -55.7128,-9.9394 -14.8873,-14.8874 -17.2674,-22.2844 -13.8809,-43.1524 5.1869,-31.9631 19.185,-45.9316 46.0234,-45.9316 z" /></g></svg>
