<?xml version="1.0" encoding="UTF-8" standalone="no"?>
<!-- Created with Inkscape (http://www.inkscape.org/) -->

<svg
   width="3928.4663"
   height="512"
   viewBox="0 0 3928.4663 512"
   version="1.1"
   id="svg5"
   xml:space="preserve"
   inkscape:version="1.2.2 (732a01da63, 2022-12-09)"
   sodipodi:docname="HeadPantry Plain Logo.svg"
   inkscape:export-filename="HeadPantry Banner.svg"
   inkscape:export-xdpi="96"
   inkscape:export-ydpi="96"
   xmlns:inkscape="http://www.inkscape.org/namespaces/inkscape"
   xmlns:sodipodi="http://sodipodi.sourceforge.net/DTD/sodipodi-0.dtd"
   xmlns="http://www.w3.org/2000/svg"
   xmlns:svg="http://www.w3.org/2000/svg"><sodipodi:namedview
     id="namedview7"
     pagecolor="#505050"
     bordercolor="#eeeeee"
     borderopacity="1"
     inkscape:showpageshadow="0"
     inkscape:pageopacity="0"
     inkscape:pagecheckerboard="0"
     inkscape:deskcolor="#505050"
     inkscape:document-units="px"
     showgrid="false"
     inkscape:zoom="0.23046875"
     inkscape:cx="3004.7458"
     inkscape:cy="527.18644"
     inkscape:window-width="2400"
     inkscape:window-height="1261"
     inkscape:window-x="2391"
     inkscape:window-y="-9"
     inkscape:window-maximized="1"
     inkscape:current-layer="layer1"><inkscape:grid
       type="xygrid"
       id="grid446" /></sodipodi:namedview><defs
     id="defs2" /><g
     inkscape:label="Layer 1"
     inkscape:groupmode="layer"
     id="layer1"
     transform="translate(-1.6586995)"><g
       id="g2972"
       transform="matrix(1.4611428,0,0,1.4611428,-84.94393,-42.927258)"
       inkscape:export-filename=".\headpantryBanner.svg"
       inkscape:export-xdpi="96"
       inkscape:export-ydpi="96"><path
         id="path371"
         style="fill:#8dfbe4;fill-opacity:1"
         d="m 268.0293,216.25781 c -1.55283,3.19276 -3.09339,6.39151 -4.63086,9.5918 -1.0112,2.28431 -2.11242,4.53221 -3.17969,6.79492 16.53498,16.39352 38.38724,38.46767 77.3418,77.94531 61.92292,62.75442 62.97972,63.78163 66.02539,64.08204 1.41241,0.1393 2.24683,0.0955 2.77929,-0.26563 0.17749,-0.1204 0.32046,-0.27669 0.44141,-0.47266 0.16125,-0.26128 0.27932,-0.59533 0.38281,-1.01171 0.87822,-3.53347 -0.94298,-14.01652 -3.95898,-22.7793 -9.42346,-27.37928 -29.6334,-55.86337 -73.12891,-103.06836 -16.52671,-17.93618 -20.63053,-22.01168 -23.26172,-23.10156 -4.19668,-1.73833 -13.92354,-1.06528 -21.75976,1.50586 l -6.27735,2.06054 z" /><path
         id="path437"
         style="fill:#8dfbe4;fill-opacity:1"
         d="m 100.5957,34.439453 c -6.610979,0.183775 -11.80251,2.000148 -15.296872,5.419922 -1.843169,1.803856 -3.214312,4.052808 -4.072266,6.746094 -7.040448,22.101566 17.774076,73.732281 42.914058,89.291011 11.94936,7.39527 28.25521,10.98151 39.44336,8.67383 5.31353,-1.09596 5.70777,-0.99265 12.92579,3.44336 3.74989,2.30461 7.73685,5.09748 11.88281,8.25977 1.32233,-0.73382 2.63963,-1.47589 3.98828,-2.16016 4.57345,-1.94544 8.6402,-4.85326 13.08594,-7.04687 -2.65989,-3.26197 -5.06501,-6.39927 -7.16407,-9.3711 -8.05795,-11.4084 -8.67363,-13.12906 -7.75,-21.70898 1.04921,-9.74597 -1.52234,-23.32345 -6.14453,-32.437502 -3.08691,-6.086848 -4.86192,-8.324486 -13.13672,-16.5625 C 160.0011,55.76613 149.18505,48.753163 132.54297,41.873047 119.94105,36.663193 109.09554,34.203171 100.5957,34.439453 Z" /><path
         id="rect356"
         style="fill:#00e4b3;fill-opacity:1;stroke-width:2;stroke-linecap:round;stroke-linejoin:round"
         d="m 222.35742,142.51367 c -0.21166,0.11086 -0.36424,0.20341 -0.57031,0.31055 -3.25477,1.69221 -7.80448,4.14703 -10.10938,5.45312 -2.3049,1.3061 -4.32293,2.375 -4.48632,2.375 -0.16339,0 -2.74966,1.44159 -5.7461,3.20508 -2.99641,1.7635 -5.65966,3.20826 -5.91797,3.20899 -0.2583,5.8e-4 -2.83109,1.33782 -5.71679,2.97265 -2.88573,1.63483 -7.34506,4.08598 -9.91016,5.44727 -2.56508,1.3613 -7.67987,4.11842 -11.36719,6.12695 -10.61954,5.78464 -21.39648,11.5825 -27.40039,14.74219 -3.04601,1.60306 -7.52802,4.06331 -9.96093,5.4668 -2.43296,1.40347 -4.57242,2.55273 -4.75391,2.55273 -0.1815,0 -1.99453,0.9482 -4.0293,2.10742 -2.03478,1.15922 -6.717,3.6853 -10.40429,5.61328 -3.68732,1.92799 -6.96647,3.70276 -7.28711,3.94336 -0.32064,0.24062 -2.94436,1.68742 -5.830082,3.21485 -2.885724,1.52739 -6.42825,3.43991 -7.871094,4.25 -1.442867,0.81009 -4.852724,2.64138 -7.578125,4.07031 -2.725404,1.42893 -6.660007,3.5483 -8.744141,4.71094 -2.084134,1.16264 -4.577155,2.50266 -5.539062,2.97656 -3.074761,1.51484 -5.485665,3.57399 -7.667969,6.54687 -2.067874,2.81701 -2.127244,3.0423 -2.183594,8.28321 -0.05669,5.26771 -0.01208,5.45856 2.072266,8.60156 2.160804,3.25825 6.497898,6.66827 9.224609,7.25391 1.656014,0.35567 5.927849,1.51197 11.962891,3.23828 2.244454,0.64202 5.786972,1.65056 7.871093,2.24023 2.084134,0.58968 4.83856,1.3757 6.121094,1.74805 1.282547,0.37235 3.642914,1.02534 5.246094,1.44922 8.82434,2.33314 11.83053,3.16901 13.4082,3.72851 0.9619,0.34113 3.58563,1.12597 5.83008,1.74414 4.73024,1.30281 8.15191,2.2527 11.0918,3.08399 7.65193,-6.67833 15.21288,-13.46174 22.52734,-20.51367 8.95244,-8.6005 17.82285,-17.41752 26.22656,-26.4668 2.17421,-2.32994 4.34543,-4.71871 6.50196,-7.13867 7.72247,-8.48923 14.82184,-17.52351 21.55859,-26.8086 3.21982,-4.5257 6.58039,-8.97215 9.37695,-13.77929 -0.35621,-1.38217 -0.89746,-2.70577 -1.40429,-4.03711 -2.33817,-5.7252 -2.68704,-12.18453 -1.1543,-18.16211 1.33608,-4.9671 3.75654,-9.50511 6.61328,-13.75977 z m 50.18555,55.17969 c -1.38881,0.79471 -2.80826,1.53225 -4.28125,2.15234 -5.77216,2.57869 -12.27302,3.66621 -18.54102,2.64258 -2.05546,-0.20557 -3.99709,-1.09145 -6.07031,-1.12305 -3.25707,2.38838 -6.31307,5.0409 -9.24805,7.8125 -7.13942,6.8784 -13.85534,14.18033 -20.54492,21.49219 -12.57893,13.70109 -24.66699,27.96282 -35.83008,42.78711 -7.82944,10.35973 -15.18089,21.06799 -22.25586,31.95508 0.99775,3.22614 2.06784,6.67875 2.2754,7.30664 0.26494,0.8016 1.19727,3.8174 2.07031,6.70313 8.61611,28.47947 10.19083,32.96576 12.46093,35.47851 4.52347,5.00694 13.1093,6.59601 18.98633,3.51367 1.60061,-0.83948 3.48963,-2.05681 4.19727,-2.70312 1.16788,-1.06667 9.3479,-16.93647 14.3457,-27.83399 1.10288,-2.40475 3.90489,-8.30767 6.22656,-13.11718 3.47976,-7.20855 8.89739,-18.44686 16.86133,-34.97852 0.61785,-1.28255 3.50326,-7.23133 6.41407,-13.21875 2.91077,-5.98741 5.29296,-11.03379 5.29296,-11.21289 0,-0.17911 3.01779,-6.46058 6.70508,-13.95899 3.68732,-7.49838 6.70313,-13.80024 6.70313,-14.0039 0,-0.20366 2.42671,-5.31142 5.39257,-11.35156 2.96588,-6.04018 5.7211,-11.74517 6.12305,-12.67774 0.12688,-0.29437 2.27789,-4.72882 2.7168,-5.66406 z" /><path
         id="path429"
         style="fill:#8dfbe4;fill-opacity:1"
         d="m 318.58301,81.507457 c -1.18546,-1.047435 -1.93236,-0.816814 -3.63462,1.125444 -4.41858,5.041408 -64.21178,66.486119 -65.93532,67.756279 -2.35696,1.73696 -5.8023,0.21696 -5.9787,-2.63725 -0.12087,-1.95545 3.0845,-5.56407 32.11487,-36.14589 39.51514,-41.626927 35.48311,-37.01198 32.09591,-36.743865 -3.1546,0.249689 -11.19165,6.507105 -41.72389,32.487705 -39.40493,33.53059 -49.55965,49.09934 -42.77929,65.58057 1.20023,2.91743 1.98175,5.91819 1.7364,6.66866 -1.0138,3.10089 -13.84648,21.05686 -23.54038,32.93983 -5.72862,7.02226 -16.84711,19.27359 -24.80693,27.33523 -21.3881,21.66165 -34.00148,33.12171 -65.89975,59.86973 -10.984931,9.21131 -21.814101,22.50916 -24.089671,29.58232 -1.96285,6.10111 -1.71982,13.24336 0.57731,17.01847 4.14955,6.8194 13.14214,8.96231 22.107981,5.26974 5.84452,-2.40703 6.21544,-2.73226 16.88259,-14.8418 8.62518,-9.79142 12.77136,-15.33936 19.82045,-26.52336 20.04347,-31.80074 38.24466,-55.61639 64.06746,-83.82739 16.64655,-18.18608 23.50694,-24.87133 31.24266,-30.44508 1.18538,-0.85409 3.77079,-0.84775 7.09674,0.018 6.69934,1.7438 12.98134,0.91965 20.03947,-2.63064 5.05156,-2.54097 6.63715,-3.9856 15.85622,-14.45596 6.37056,-7.23521 12.62312,-15.33183 16.53846,-21.41665 3.46242,-5.38096 12.83284,-19.92028 20.82444,-32.30842 11.99303,-18.59093 14.4983,-23.01809 14.34533,-25.356095 l -0.18507,-2.832067 -6.84733,8.628592 c -3.76558,4.74614 -17.70963,21.72554 -30.98596,37.73241 -21.6685,26.12505 -24.36335,29.11909 -26.33989,29.24126 -2.88246,0.17818 -4.82521,-3.04368 -3.38102,-5.60672 0.85403,-1.5157 56.88657,-71.294115 60.44635,-75.275058 0.4582,-0.512544 0.16109,-1.525695 -0.65938,-2.250649 -1.46679,-1.296029 -2.04498,-0.698541 -34.55501,35.710027 -30.65498,34.3311 -33.21204,37.00631 -35.10547,36.69881 -1.48938,-0.24187 -2.1994,-0.86923 -2.62284,-2.31748 -0.53834,-1.84116 1.80015,-4.70949 32.09477,-39.35899 32.12782,-36.746253 32.64957,-37.393633 31.18278,-38.689653 z" /></g><path
       id="path359"
       style="font-weight:bold;font-size:575.281px;font-family:'TT Firs Neue Trl';-inkscape-font-specification:'TT Firs Neue Trl Bold';text-align:center;text-anchor:middle;fill:#ffffff;stroke-width:15.4093;stroke-linecap:round;stroke-linejoin:round"
       d="m 579.11328,0 v 402.69727 h 97.79688 V 244.49414 c 0,-20.32655 5.56152,-36.43509 16.68359,-48.32422 11.12208,-11.88912 24.73787,-17.83203 40.8457,-17.83203 16.10784,0 28.76428,4.79286 37.96875,14.38086 9.20448,9.58799 13.80664,23.01114 13.80664,40.26953 v 169.70899 h 97.79688 V 218.60742 c 0,-40.6531 -9.97103,-71.33484 -29.91406,-92.04492 -19.94304,-21.09359 -47.36531,-31.640625 -82.26563,-31.640625 -16.10783,0 -29.72362,2.683456 -40.8457,8.052735 -11.12208,4.98575 -20.32641,10.54728 -27.61328,16.68359 -8.43744,6.90337 -15.33971,14.95764 -20.70899,24.16211 h -5.7539 V 0 Z M 1885,0 v 143.82031 h -5.752 c -5.7526,-9.20447 -13.0403,-17.25874 -21.8613,-24.16211 -7.6704,-6.13631 -17.0654,-11.69784 -28.1875,-16.68359 -11.1221,-5.369279 -24.1619,-8.052735 -39.1191,-8.052735 -18.0255,0 -35.0933,3.642809 -51.2012,10.929685 -15.7243,7.28689 -29.7215,17.83391 -41.9941,31.64063 -11.8892,13.42319 -21.4788,29.91509 -28.7657,49.47461 -6.9034,19.55951 -10.3535,41.61097 -10.3535,66.15625 0,24.54527 3.4501,46.59869 10.3535,66.1582 7.2869,19.55951 16.8765,36.24211 28.7657,50.04883 12.2726,13.42318 26.2698,23.77953 41.9941,31.0664 16.1079,7.28689 33.1757,10.92969 51.2012,10.92969 14.9572,0 27.997,-2.49276 39.1191,-7.47851 11.1221,-4.98577 20.5171,-10.54728 28.1875,-16.6836 8.821,-6.90335 16.1087,-15.14833 21.8613,-24.73633 H 1885 v 40.26954 h 97.7988 V 0 Z m 1274.25,40.269531 v 63.281249 h -37.3945 v 77.66211 h 37.3945 v 137.95896 a 83.525424,83.525424 45 0 0 83.5254,83.52542 h 97.6875 V 325.0332 h -56.2974 a 27.118644,27.118644 45 0 1 -27.1186,-27.11864 V 181.21289 h 126.5625 V 103.55078 H 3257.0469 V 40.269531 Z M 1088.2363,94.921875 c -23.011,0 -44.4885,4.218816 -64.4316,12.656245 -19.943,8.43745 -37.39235,19.94187 -52.34962,34.51563 -14.57376,14.19024 -26.08015,30.87479 -34.51758,50.05078 -8.43743,19.176 -12.65625,39.50141 -12.65625,60.97852 0,21.47712 4.21882,41.80446 12.65625,60.98047 8.43743,19.17599 19.94382,36.05123 34.51758,50.625 14.95727,14.19023 32.40662,25.50397 52.34962,33.9414 19.9431,8.43744 41.4206,12.65625 64.4316,12.65625 16.4914,0 31.4499,-1.53536 44.8731,-4.60351 13.4232,-3.06817 25.3109,-7.09433 35.666,-12.08008 10.7385,-5.36928 20.1356,-11.31414 28.1894,-17.83399 8.4375,-6.51983 15.5324,-13.23141 21.2852,-20.13476 13.8067,-15.72432 24.1611,-33.94032 31.0645,-54.65039 h -103.5508 c -2.6847,6.13631 -6.5182,11.50518 -11.5039,16.10742 -4.2188,4.21872 -10.1636,7.86152 -17.834,10.92969 -7.2869,3.06814 -16.6839,4.60156 -28.1895,4.60156 -17.2584,0 -31.4482,-5.36887 -42.5703,-16.10742 -10.7385,-11.12208 -17.6427,-26.84532 -20.7109,-47.17188 h 227.2363 v -17.25976 c 0,-21.47711 -4.2189,-41.80252 -12.6562,-60.97852 -8.054,-19.17599 -19.3678,-35.86054 -33.9414,-50.05078 -14.5738,-14.57376 -31.8324,-26.07818 -51.7754,-34.51563 -19.9431,-8.437429 -41.8038,-12.656245 -65.5821,-12.656245 z m 330.7871,0 c -18.0253,0 -35.0934,3.642809 -51.2011,10.929685 -15.7244,7.28689 -29.7215,17.83391 -41.9942,31.64063 -11.8891,13.42319 -21.4768,29.91509 -28.7636,49.47461 -6.9034,19.55951 -10.3555,41.61097 -10.3555,66.15625 0,24.54527 3.4521,46.59869 10.3555,66.1582 7.2868,19.55951 16.8745,36.24211 28.7636,50.04883 12.2727,13.42318 26.2698,23.77953 41.9942,31.0664 16.1077,7.28689 33.1758,10.92969 51.2011,10.92969 14.9574,0 27.9971,-2.49276 39.1192,-7.47851 11.1221,-4.98577 20.5171,-10.54728 28.1875,-16.6836 8.8209,-6.90335 16.1085,-15.14833 21.8613,-24.73633 h 5.7539 v 40.26954 h 97.7969 V 103.55078 h -97.7969 v 40.26953 h -5.7539 c -5.7528,-9.20447 -13.0404,-17.25874 -21.8613,-24.16211 -7.6704,-6.13631 -17.0654,-11.69784 -28.1875,-16.68359 -11.1221,-5.369279 -24.1618,-8.052735 -39.1192,-8.052735 z m 814.0235,0 c -15.3408,0 -28.5732,2.683456 -39.6953,8.052735 -10.7386,4.98575 -19.9429,10.54728 -27.6133,16.68359 -8.8209,6.90337 -16.1087,14.95764 -21.8613,24.16211 h -5.752 v -40.26953 h -97.7969 V 512 h 97.7969 V 362.42773 h 5.752 c 5.7526,9.588 13.0404,17.83298 21.8613,24.73633 7.6704,6.13632 16.8747,11.69783 27.6133,16.6836 11.1221,4.98575 24.3545,7.47851 39.6953,7.47851 18.0254,0 34.9007,-3.6428 50.625,-10.92969 16.1078,-7.28687 30.1049,-17.64322 41.9941,-31.0664 12.2727,-13.80672 21.8604,-30.48932 28.7637,-50.04883 7.2868,-19.55951 10.9316,-41.61293 10.9316,-66.1582 0,-24.54528 -3.6448,-46.59674 -10.9316,-66.15625 -6.9033,-19.55952 -16.491,-36.05142 -28.7637,-49.47461 -11.8892,-13.80672 -25.8863,-24.35374 -41.9941,-31.64063 -15.7243,-7.286876 -32.5996,-10.929685 -50.625,-10.929685 z m 299.1465,0 c -18.0255,0 -35.0934,3.642809 -51.2012,10.929685 -15.7243,7.28689 -29.7215,17.83391 -41.9942,31.64063 -11.889,13.42319 -21.4787,29.91509 -28.7656,49.47461 -6.9033,19.55951 -10.3535,41.61097 -10.3535,66.15625 0,24.54527 3.4502,46.59869 10.3535,66.1582 7.2869,19.55951 16.8766,36.24211 28.7656,50.04883 12.2727,13.42318 26.2699,23.77953 41.9942,31.0664 16.1078,7.28689 33.1757,10.92969 51.2012,10.92969 14.9571,0 27.997,-2.49276 39.1191,-7.47851 11.1221,-4.98577 20.517,-10.54728 28.1875,-16.6836 8.8209,-6.90335 16.1085,-15.14833 21.8613,-24.73633 h 5.752 v 40.26954 h 97.7988 V 103.55078 h -97.7988 v 40.26953 h -5.752 c -5.7528,-9.20447 -13.0404,-17.25874 -21.8613,-24.16211 -7.6705,-6.13631 -17.0654,-11.69784 -28.1875,-16.68359 -11.1221,-5.369279 -24.162,-8.052735 -39.1191,-8.052735 z m 442.9668,0 c -16.1079,0 -29.7237,2.683456 -40.8457,8.052735 -11.1221,4.98575 -20.3264,10.54728 -27.6133,16.68359 -8.4375,6.90337 -15.3417,14.95764 -20.711,24.16211 h -5.7519 v -40.26953 h -97.7988 v 299.14649 h 97.7988 V 244.49414 c 0,-20.32655 5.5615,-36.43509 16.6836,-48.32422 11.1221,-11.88912 24.7359,-17.83203 40.8437,-17.83203 16.1079,0 28.7643,4.79286 37.9688,14.38086 9.2045,9.58799 13.8066,23.01114 13.8066,40.26953 v 169.70899 h 97.7988 V 218.60742 c 0,-40.6531 -9.9729,-71.33484 -29.916,-92.04492 -19.943,-21.09359 -47.3634,-31.640625 -82.2636,-31.640625 z m 582.1836,2.875 c -14.1903,0 -25.8874,2.685415 -35.0918,8.054685 -9.2045,4.98576 -16.6828,10.54727 -22.4356,16.6836 -6.9034,6.90335 -12.0815,14.95761 -15.5332,24.16211 h -5.752 v -43.14649 h -94.9218 v 299.14649 h 97.7968 V 250.24805 c 0,-17.25841 5.1782,-31.06685 15.5333,-41.42188 10.7384,-10.73856 24.7377,-16.10742 41.996,-16.10742 h 46.3282 l -24.875,-94.921875 z m 44.871,5.753905 77.6641,299.14649 h 66.1563 L 3714.3945,512 h 100.6758 L 3930.125,103.55078 h -100.6738 l -57.5274,215.73047 h -17.2578 l -51.7754,-215.73047 z m -2513.9785,69.0332 c 16.1079,0 29.3404,4.98552 39.6953,14.95704 10.7386,9.58799 17.6409,20.90172 20.709,33.9414 H 1027.832 c 3.0682,-13.03968 9.7798,-24.35341 20.1348,-33.9414 10.7386,-9.97152 24.1617,-14.95704 40.2695,-14.95704 z m 362.4278,5.75391 c 18.7924,0 33.9416,6.32821 45.4472,18.98438 11.8892,12.65614 17.834,31.2555 17.834,55.80078 0,24.54527 -5.9448,43.14657 -17.834,55.80273 -11.5056,12.65616 -26.6548,18.98438 -45.4472,18.98438 -18.7925,0 -34.1344,-6.32822 -46.0235,-18.98438 -11.5056,-12.65616 -17.2578,-31.25746 -17.2578,-55.80273 0,-24.54528 5.7522,-43.14464 17.2578,-55.80078 11.8891,-12.65617 27.231,-18.98438 46.0235,-18.98438 z m 371.0566,0 c 18.7925,0 33.9417,6.32821 45.4473,18.98438 11.8891,12.65614 17.832,31.2555 17.832,55.80078 0,24.54527 -5.9429,43.14657 -17.832,55.80273 -11.5056,12.65616 -26.6548,18.98438 -45.4473,18.98438 -18.7925,0 -34.1343,-6.32822 -46.0234,-18.98438 -11.5056,-12.65616 -17.2578,-31.25746 -17.2578,-55.80273 0,-24.54528 5.7522,-43.14464 17.2578,-55.80078 11.8891,-12.65617 27.2309,-18.98438 46.0234,-18.98438 z m 379.6855,0 c 18.7925,0 33.9417,6.32821 45.4473,18.98438 11.8891,12.65614 17.834,31.2555 17.834,55.80078 0,24.54527 -5.9449,43.14657 -17.834,55.80273 -11.5056,12.65616 -26.6548,18.98438 -45.4473,18.98438 -18.7924,0 -34.1343,-6.32822 -46.0234,-18.98438 -11.5056,-12.65616 -17.2578,-31.25746 -17.2578,-55.80273 0,-24.54528 5.7522,-43.14464 17.2578,-55.80078 11.8891,-12.65617 27.231,-18.98438 46.0234,-18.98438 z m 362.4258,0 c 18.7925,0 33.9417,6.32821 45.4473,18.98438 11.8892,12.65614 17.834,31.2555 17.834,55.80078 0,24.54527 -5.9448,43.14657 -17.834,55.80273 -11.5056,12.65616 -26.6548,18.98438 -45.4473,18.98438 -18.7923,0 -34.1323,-6.32822 -46.0215,-18.98438 -11.5055,-12.65616 -17.2578,-31.25746 -17.2578,-55.80273 0,-24.54528 5.7523,-43.14464 17.2578,-55.80078 11.8892,-12.65617 27.2292,-18.98438 46.0215,-18.98438 z"
       sodipodi:nodetypes="cccsssssccscscccccccccccscccscccssccccccccccccccccccccccsscssscssscccccccscccsccssscccscccsscccccccccccssccccccccccccscccscccsscccscccsscccccccccccssccccccccsssssccscssccccccccsssccscccccccccccsccccsscscscscsscscscscsscscscscsscscscscs" /></g></svg>
